<svg width="15" height="15" viewBox="0 0 15 15" fill="none" xmlns="http://www.w3.org/2000/svg">
<mask id="mask0_1_516" style="mask-type:luminance" maskUnits="userSpaceOnUse" x="0" y="0" width="15" height="15">
<path fill-rule="evenodd" clip-rule="evenodd" d="M14.3999 5.96016H7.45405V8.77468H11.4521C11.0794 10.5627 9.52085 11.5892 7.45405 11.5892C5.01454 11.5892 3.04938 9.6687 3.04938 7.28464C3.04938 4.90058 5.01454 2.98008 7.45405 2.98008C8.50439 2.98008 9.45309 3.34431 10.1985 3.94033L12.3669 1.82116C11.0455 0.695352 9.35144 0 7.45405 0C3.32044 0 0 3.24498 0 7.28464C0 11.3243 3.32044 14.5693 7.45405 14.5693C11.1811 14.5693 14.5693 11.9203 14.5693 7.28464C14.5693 6.85418 14.5015 6.39062 14.3999 5.96016Z" fill="white"/>
</mask>
<g mask="url(#mask0_1_516)">
<path d="M-0.678223 11.5892V2.98004L5.08173 7.2846L-0.678223 11.5892Z" fill="white"/>
</g>
<mask id="mask1_1_516" style="mask-type:luminance" maskUnits="userSpaceOnUse" x="0" y="0" width="15" height="15">
<path fill-rule="evenodd" clip-rule="evenodd" d="M14.3999 5.96016H7.45405V8.77468H11.4521C11.0794 10.5627 9.52085 11.5892 7.45405 11.5892C5.01454 11.5892 3.04938 9.6687 3.04938 7.28464C3.04938 4.90058 5.01454 2.98008 7.45405 2.98008C8.50439 2.98008 9.45309 3.34431 10.1985 3.94033L12.3669 1.82116C11.0455 0.695352 9.35144 0 7.45405 0C3.32044 0 0 3.24498 0 7.28464C0 11.3243 3.32044 14.5693 7.45405 14.5693C11.1811 14.5693 14.5693 11.9203 14.5693 7.28464C14.5693 6.85418 14.5015 6.39062 14.3999 5.96016Z" fill="white"/>
</mask>
<g mask="url(#mask1_1_516)">
<path d="M-0.678223 2.97978L5.08173 7.28434L7.45347 5.26451L15.5852 3.97314V-0.662537H-0.678223V2.97978Z" fill="white"/>
</g>
<mask id="mask2_1_516" style="mask-type:luminance" maskUnits="userSpaceOnUse" x="0" y="0" width="15" height="15">
<path fill-rule="evenodd" clip-rule="evenodd" d="M14.3999 5.96016H7.45405V8.77468H11.4521C11.0794 10.5627 9.52085 11.5892 7.45405 11.5892C5.01454 11.5892 3.04938 9.6687 3.04938 7.28464C3.04938 4.90058 5.01454 2.98008 7.45405 2.98008C8.50439 2.98008 9.45309 3.34431 10.1985 3.94033L12.3669 1.82116C11.0455 0.695352 9.35144 0 7.45405 0C3.32044 0 0 3.24498 0 7.28464C0 11.3243 3.32044 14.5693 7.45405 14.5693C11.1811 14.5693 14.5693 11.9203 14.5693 7.28464C14.5693 6.85418 14.5015 6.39062 14.3999 5.96016Z" fill="white"/>
</mask>
<g mask="url(#mask2_1_516)">
<path d="M-0.678223 11.5889L9.48639 3.97314L12.1631 4.30426L15.5852 -0.662537V15.2312H-0.678223V11.5889Z" fill="white"/>
</g>
<mask id="mask3_1_516" style="mask-type:luminance" maskUnits="userSpaceOnUse" x="0" y="0" width="15" height="15">
<path fill-rule="evenodd" clip-rule="evenodd" d="M14.3999 5.96016H7.45405V8.77468H11.4521C11.0794 10.5627 9.52085 11.5892 7.45405 11.5892C5.01454 11.5892 3.04938 9.6687 3.04938 7.28464C3.04938 4.90058 5.01454 2.98008 7.45405 2.98008C8.50439 2.98008 9.45309 3.34431 10.1985 3.94033L12.3669 1.82116C11.0455 0.695352 9.35144 0 7.45405 0C3.32044 0 0 3.24498 0 7.28464C0 11.3243 3.32044 14.5693 7.45405 14.5693C11.1811 14.5693 14.5693 11.9203 14.5693 7.28464C14.5693 6.85418 14.5015 6.39062 14.3999 5.96016Z" fill="white"/>
</mask>
<g mask="url(#mask3_1_516)">
<path d="M15.5853 15.2315L5.08184 7.2846L3.72656 6.29124L15.5853 2.98004V15.2315Z" fill="white"/>
</g>
</svg>
