<svg width="19" height="12" viewBox="0 0 19 12" fill="none" xmlns="http://www.w3.org/2000/svg">
<path d="M9.5 1.71427H0.874323C0.563377 1.71846 0.27423 1.55602 0.117527 1.28911C-0.0391757 1.02221 -0.0391757 0.692147 0.117527 0.425239C0.27423 0.15833 0.563377 -0.00410925 0.874323 7.90818e-05H9.5C9.81095 -0.00410925 10.1001 0.15833 10.2568 0.425239C10.4135 0.692147 10.4135 1.02221 10.2568 1.28911C10.1001 1.55602 9.81095 1.71846 9.5 1.71427Z" fill="#F6F6F6"/>
<path d="M18.1257 11.9999H0.874323C0.563377 12.0041 0.27423 11.8417 0.117527 11.5748C-0.0391757 11.3079 -0.0391757 10.9778 0.117527 10.7109C0.27423 10.444 0.563377 10.2815 0.874323 10.2857H18.1257C18.4366 10.2815 18.7258 10.444 18.8825 10.7109C19.0392 10.9778 19.0392 11.3079 18.8825 11.5748C18.7258 11.8417 18.4366 12.0041 18.1257 11.9999Z" fill="#F6F6F6"/>
<path d="M13.8129 6.85702H0.87435C0.397932 6.85702 0.0117188 6.47325 0.0117188 5.99985C0.0117188 5.52644 0.397932 5.14267 0.87435 5.14267H13.8129C14.2893 5.14267 14.6755 5.52644 14.6755 5.99985C14.6755 6.47325 14.2893 6.85702 13.8129 6.85702Z" fill="#F6F6F6"/>
</svg>
